# xmcd CD database file
#
# Track frame offsets:
#	150
#	14970
#	39402
#	54655
#	79190
#	107102
#	127972
#	147270
#	160175
#	185417
#
# Disc length: 2737 seconds
#
# Revision: 0
# Processed by: cddbd v1.4PL0 Copyright (c) Steve Scherf et al.
# Submitted via: CDex 1.51
#
DISCID=870aaf0a
DTITLE=Various Artist - Sacred Space
DYEAR=2000
DGENRE=New Age
TTITLE0=Espiritu - Thomas Otten
TTITLE1=Dil Ki Doya - Paban Das Baul and Sam Mills
TTITLE2=Uku' Lela - Miriam Stockley
TTITLE3=Passage at Dusk - Geoffrey Oryema
TTITLE4=Wintry Wind - Uttara-Kuru
TTITLE5=Negrume Da Noite - Virginia Rodrigues
TTITLE6=Inion - Afro Celt Sound System
TTITLE7=Erthe Upon Erthe - Medieval Baebes
TTITLE8=Astrae - Vas
TTITLE9=Ave Maria - Paul Schwartz
EXTD=YEAR: 2000
EXTT0=
EXTT1=
EXTT2=
EXTT3=
EXTT4=
EXTT5=
EXTT6=
EXTT7=
EXTT8=
EXTT9=
PLAYORDER=
